<?xml version="1.0" standalone="no"?>
<!DOCTYPE svg PUBLIC "-//W3C//DTD SVG 20010904//EN"
 "http://www.w3.org/TR/2001/REC-SVG-20010904/DTD/svg10.dtd">
<svg version="1.0" xmlns="http://www.w3.org/2000/svg"
 width="186.000000pt" height="143.000000pt" viewBox="0 0 186.000000 143.000000"
 preserveAspectRatio="xMidYMid meet">

<g transform="translate(0.000000,143.000000) scale(0.100000,-0.100000)"
fill="#000000" stroke="none">
<path d="M1301 1270 c21 -40 24 -62 27 -186 3 -83 -1 -163 -7 -196 -21 -98
-95 -183 -181 -208 -18 -5 -130 -10 -250 -11 -179 -1 -223 2 -255 15 l-39 17
24 -26 c13 -13 47 -34 77 -45 47 -18 78 -20 258 -20 180 0 211 2 258 20 63 24
117 74 149 139 21 42 23 60 23 216 0 165 -1 172 -27 226 -15 30 -39 66 -54 80
l-26 24 23 -45z"/>
<path d="M982 1108 l-33 -33 -22 28 c-13 15 -26 27 -30 27 -4 0 -18 -24 -31
-52 -24 -53 -25 -53 -41 -3 -6 22 -16 19 -52 -16 -44 -40 -42 -57 1 -24 l35
26 11 -41 c6 -22 15 -38 20 -35 5 3 20 30 34 61 l26 56 24 -29 25 -28 40 40
c39 37 50 55 33 55 -4 0 -22 -15 -40 -32z"/>
<path d="M1093 1030 c0 -36 2 -50 4 -32 2 17 2 47 0 65 -2 17 -4 3 -4 -33z"/>
<path d="M845 885 c51 -17 101 -17 145 0 33 13 28 13 -75 13 -105 0 -108 -1
-70 -13z"/>
</g>
</svg>
